<?xml version="1.0" encoding="UTF-8" standalone="no"?><svg xmlns="http://www.w3.org/2000/svg" xmlns:xlink="http://www.w3.org/1999/xlink" contentScriptType="application/ecmascript" contentStyleType="text/css" height="479px" preserveAspectRatio="none" style="width:490px;height:479px;background:#FFFFFF;" version="1.1" viewBox="0 0 490 479" width="490px" zoomAndPan="magnify"><defs><filter height="300%" id="f109glofwzt79o" width="300%" x="-1" y="-1"><feGaussianBlur result="blurOut" stdDeviation="2.0"/><feColorMatrix in="blurOut" result="blurOut2" type="matrix" values="0 0 0 0 0 0 0 0 0 0 0 0 0 0 0 0 0 0 .4 0"/><feOffset dx="4.0" dy="4.0" in="blurOut2" result="blurOut3"/><feBlend in="SourceGraphic" in2="blurOut3" mode="normal"/></filter></defs><g><rect fill="#F8F8F8" filter="url(#f109glofwzt79o)" height="460.6094" rx="12.5" ry="12.5" style="stroke:#383838;stroke-width:1.5;" width="471.981" x="7" y="7"/><rect fill="#FFFFFF" height="427" rx="12.5" ry="12.5" style="stroke:#FFFFFF;stroke-width:1.0;" width="465.981" x="10" y="37.6094"/><line style="stroke:#383838;stroke-width:1.5;" x1="7" x2="478.981" y1="34.6094" y2="34.6094"/><text fill="#000000" font-family="Helvetica" font-size="14" font-weight="bold" lengthAdjust="spacing" textLength="129" x="178.4905" y="26.5332">PacketReaderFSM</text><ellipse cx="129.981" cy="55.6094" fill="#000000" filter="url(#f109glofwzt79o)" rx="10" ry="10" style="stroke:none;stroke-width:1.0;"/><g id="PacketReaderFSM.RCVPCKT"><rect fill="#F8F8F8" filter="url(#f109glofwzt79o)" height="50" rx="12.5" ry="12.5" style="stroke:#383838;stroke-width:1.5;" width="86" x="86.981" y="119.6094"/><line style="stroke:#383838;stroke-width:1.5;" x1="86.981" x2="172.981" y1="147.2188" y2="147.2188"/><text fill="#000000" font-family="Helvetica" font-size="14" font-weight="bold" lengthAdjust="spacing" textLength="66" x="96.981" y="139.1426">RCVPCKT</text></g><g id="PacketReaderFSM.RCVDATA"><rect fill="#F8F8F8" filter="url(#f109glofwzt79o)" height="50" rx="12.5" ry="12.5" style="stroke:#383838;stroke-width:1.5;" width="85" x="30.481" y="223.6094"/><line style="stroke:#383838;stroke-width:1.5;" x1="30.481" x2="115.481" y1="251.2188" y2="251.2188"/><text fill="#000000" font-family="Helvetica" font-size="14" font-weight="bold" lengthAdjust="spacing" textLength="65" x="40.481" y="243.1426">RCVDATA</text></g><g id="PacketReaderFSM.RCVCHK"><rect fill="#F8F8F8" filter="url(#f109glofwzt79o)" height="50" rx="12.5" ry="12.5" style="stroke:#383838;stroke-width:1.5;" width="79" x="195.481" y="223.6094"/><line style="stroke:#383838;stroke-width:1.5;" x1="195.481" x2="274.481" y1="251.2188" y2="251.2188"/><text fill="#000000" font-family="Helvetica" font-size="14" font-weight="bold" lengthAdjust="spacing" textLength="59" x="205.481" y="243.1426">RCVCHK</text></g><g id="PacketReaderFSM.RCVESC"><rect fill="#F8F8F8" filter="url(#f109glofwzt79o)" height="50" rx="12.5" ry="12.5" style="stroke:#383838;stroke-width:1.5;" width="77" x="34.481" y="327.6094"/><line style="stroke:#383838;stroke-width:1.5;" x1="34.481" x2="111.481" y1="355.2188" y2="355.2188"/><text fill="#000000" font-family="Helvetica" font-size="14" font-weight="bold" lengthAdjust="spacing" textLength="57" x="44.481" y="347.1426">RCVESC</text></g><g id="PacketReaderFSM.RCVCHKESC"><rect fill="#F8F8F8" filter="url(#f109glofwzt79o)" height="50" rx="12.5" ry="12.5" style="stroke:#383838;stroke-width:1.5;" width="107" x="176.481" y="327.6094"/><line style="stroke:#383838;stroke-width:1.5;" x1="176.481" x2="283.481" y1="355.2188" y2="355.2188"/><text fill="#000000" font-family="Helvetica" font-size="14" font-weight="bold" lengthAdjust="spacing" textLength="87" x="186.481" y="347.1426">RCVCHKESC</text></g><g id="PacketReaderFSM.CHKSUM"><rect fill="#F8F8F8" filter="url(#f109glofwzt79o)" height="50" rx="12.5" ry="12.5" style="stroke:#383838;stroke-width:1.5;" width="82" x="301.981" y="327.6094"/><line style="stroke:#383838;stroke-width:1.5;" x1="301.981" x2="383.981" y1="355.2188" y2="355.2188"/><text fill="#000000" font-family="Helvetica" font-size="14" font-weight="bold" lengthAdjust="spacing" textLength="62" x="311.981" y="347.1426">CHKSUM</text></g><ellipse cx="341.981" cy="441.6094" filter="url(#f109glofwzt79o)" rx="10" ry="10" style="stroke:#000000;stroke-width:1.0;fill:none;"/><ellipse cx="342.481" cy="442.1094" fill="#000000" rx="6" ry="6" style="stroke:none;stroke-width:1.0;"/><!--MD5=[d5e19be9775b48f87b777a3a7c2ace4f]
link *start*PacketReaderFSM to RCVPCKT--><path d="M129.981,65.9204 C129.981,77.3614 129.981,97.3264 129.981,114.1514 " fill="none" id="*start*PacketReaderFSM-to-RCVPCKT" style="stroke:#383838;stroke-width:1.0;"/><polygon fill="#383838" points="129.981,119.2594,133.981,110.2594,129.981,114.2594,125.981,110.2594,129.981,119.2594" style="stroke:#383838;stroke-width:1.0;"/><text fill="#000000" font-family="monospace" font-size="13" font-weight="bold" lengthAdjust="spacing" textLength="32" x="130.981" y="97.6792">CTRL</text><!--MD5=[223b5a4b9e3f449b8f8ae37661901ac5]
link RCVPCKT to RCVDATA--><path d="M88.1459,169.8504 C82.4577,174.9744 77.4067,180.8984 73.981,187.6094 C69.2618,196.8544 68.0645,207.9914 68.3625,218.1474 " fill="none" id="RCVPCKT-to-RCVDATA" style="stroke:#383838;stroke-width:1.0;"/><polygon fill="#383838" points="68.6439,223.3534,72.1521,214.1505,68.3739,218.3607,64.1638,214.5825,68.6439,223.3534" style="stroke:#383838;stroke-width:1.0;"/><text fill="#000000" font-family="monospace" font-size="13" font-weight="bold" lengthAdjust="spacing" textLength="32" x="74.981" y="201.6792">CTRL</text><!--MD5=[8faa5056d0c6829674e5759c682e3918]
link RCVPCKT to RCVCHK--><path d="M154.865,169.7824 C170.183,184.6624 189.886,203.8034 205.92,219.3784 " fill="none" id="RCVPCKT-to-RCVCHK" style="stroke:#383838;stroke-width:1.0;"/><polygon fill="#383838" points="209.912,223.2564,206.2432,214.1164,206.3255,219.7726,200.6692,219.8549,209.912,223.2564" style="stroke:#383838;stroke-width:1.0;"/><text fill="#000000" font-family="monospace" font-size="13" font-weight="bold" lengthAdjust="spacing" textLength="32" x="189.981" y="201.6792">BYTE</text><!--MD5=[e6aec3718703e49bd175761eb2d8125e]
link RCVDATA to RCVDATA--><path d="M115.6644,239.0314 C125.898,239.7804 133.481,242.9724 133.481,248.6094 C133.481,253.2774 128.281,256.2694 120.6812,257.5844 " fill="none" id="RCVDATA-to-RCVDATA" style="stroke:#383838;stroke-width:1.0;"/><polygon fill="#383838" points="115.6644,258.1874,125.0773,261.0852,120.6287,257.5909,124.123,253.1424,115.6644,258.1874" style="stroke:#383838;stroke-width:1.0;"/><text fill="#000000" font-family="monospace" font-size="13" font-weight="bold" lengthAdjust="spacing" textLength="32" x="139.481" y="253.6792">BYTE</text><!--MD5=[64f6cabce6aefa4b6bef31bef7cb6dd4]
link RCVDATA to RCVPCKT--><path d="M95.5778,223.3344 C100.0674,217.7704 104.4722,211.6944 107.981,205.6094 C113.5062,196.0284 118.0643,184.8104 121.5707,174.6844 " fill="none" id="RCVDATA-to-RCVPCKT" style="stroke:#383838;stroke-width:1.0;"/><polygon fill="#383838" points="123.207,169.8124,116.5505,177.0712,121.6156,174.5524,124.1345,179.6175,123.207,169.8124" style="stroke:#383838;stroke-width:1.0;"/><text fill="#000000" font-family="monospace" font-size="13" font-weight="bold" lengthAdjust="spacing" textLength="32" x="117.981" y="201.6792">CTRL</text><!--MD5=[754e15d195ce548844ee58ef62ee6881]
link RCVDATA to RCVESC--><path d="M37.8977,273.6764 C32.6541,278.9394 28.0009,284.9544 24.981,291.6094 C19.7741,303.0844 24.9451,314.2604 33.5442,323.7954 " fill="none" id="RCVDATA-to-RCVESC" style="stroke:#383838;stroke-width:1.0;"/><polygon fill="#383838" points="37.1336,327.5024,33.7482,318.2537,33.6561,323.9098,28,323.8177,37.1336,327.5024" style="stroke:#383838;stroke-width:1.0;"/><text fill="#000000" font-family="monospace" font-size="13" font-weight="bold" lengthAdjust="spacing" textLength="24" x="25.981" y="305.6792">ESC</text><!--MD5=[86c8456afa178ad3eb8ff5de0cac72b7]
link RCVESC to RCVDATA--><path d="M72.981,327.2564 C72.981,312.7214 72.981,294.1694 72.981,278.8444 " fill="none" id="RCVESC-to-RCVDATA" style="stroke:#383838;stroke-width:1.0;"/><polygon fill="#383838" points="72.981,273.7824,68.981,282.7824,72.981,278.7824,76.981,282.7824,72.981,273.7824" style="stroke:#383838;stroke-width:1.0;"/><text fill="#000000" font-family="monospace" font-size="13" font-weight="bold" lengthAdjust="spacing" textLength="24" x="73.981" y="305.6792">ESC</text><!--MD5=[86c8456afa178ad3eb8ff5de0cac72b7]
link RCVESC to RCVDATA--><path d="M92.5935,327.3764 C98.9525,316.6704 103.554,303.7744 99.981,291.6094 C98.6535,287.0894 96.6729,282.5964 94.3764,278.3214 " fill="none" id="RCVESC-to-RCVDATA-1" style="stroke:#383838;stroke-width:1.0;"/><polygon fill="#383838" points="91.7762,273.7774,92.7737,283.5756,94.2592,278.1173,99.7175,279.6028,91.7762,273.7774" style="stroke:#383838;stroke-width:1.0;"/><text fill="#000000" font-family="monospace" font-size="13" font-weight="bold" lengthAdjust="spacing" textLength="32" x="102.981" y="305.6792">CTRL</text><!--MD5=[ef53d8997df390aa77945a8e4dc9b41a]
link RCVCHK to RCVCHK--><path d="M274.487,238.9604 C284.745,239.5534 292.481,242.7694 292.481,248.6094 C292.481,253.4454 287.176,256.4824 279.526,257.7204 " fill="none" id="RCVCHK-to-RCVCHK" style="stroke:#383838;stroke-width:1.0;"/><polygon fill="#383838" points="274.487,258.2584,283.8604,261.2818,279.4589,257.7283,283.0123,253.3268,274.487,258.2584" style="stroke:#383838;stroke-width:1.0;"/><text fill="#000000" font-family="monospace" font-size="13" font-weight="bold" lengthAdjust="spacing" textLength="32" x="298.481" y="253.6792">BYTE</text><!--MD5=[713e34e975cc9ece7234860ca6efebe2]
link RCVCHK to RCVCHKESC--><path d="M197.237,273.8444 C191.868,279.0264 187.114,284.9704 183.981,291.6094 C178.64,302.9274 183.658,314.1374 192.06,323.7494 " fill="none" id="RCVCHK-to-RCVCHKESC" style="stroke:#383838;stroke-width:1.0;"/><polygon fill="#383838" points="195.568,327.4894,192.3277,318.1888,192.1471,323.8428,186.4932,323.6623,195.568,327.4894" style="stroke:#383838;stroke-width:1.0;"/><text fill="#000000" font-family="monospace" font-size="13" font-weight="bold" lengthAdjust="spacing" textLength="24" x="184.981" y="305.6792">ESC</text><!--MD5=[ca3ef35f4d7ec009fd43d62c7b92c8b2]
link RCVCHK to CHKSUM--><path d="M274.544,272.3884 C283.039,278.1284 291.656,284.6554 298.981,291.6094 C308.823,300.9524 317.997,312.7314 325.394,323.3734 " fill="none" id="RCVCHK-to-CHKSUM" style="stroke:#383838;stroke-width:1.0;"/><polygon fill="#383838" points="328.243,327.5434,326.4675,317.8559,325.4219,323.4153,319.8625,322.3697,328.243,327.5434" style="stroke:#383838;stroke-width:1.0;"/><text fill="#000000" font-family="monospace" font-size="13" font-weight="bold" lengthAdjust="spacing" textLength="32" x="315.981" y="305.6792">CTRL</text><!--MD5=[00429ecdfcda5695b8497d8e825643be]
link CHKSUM to *end*PacketReaderFSM--><path d="M301.878,377.0625 C295.863,382.3589 290.514,388.544 286.981,395.6094 C283.403,402.7648 282.75,406.8196 286.981,413.6094 C295.721,427.6367 314.112,434.5827 327.22,437.8759 " fill="none" id="CHKSUM-to-*end*PacketReaderFSM" style="stroke:#383838;stroke-width:1.0;"/><polygon fill="#383838" points="332.125,439.0023,324.2497,433.088,327.2521,437.8823,322.4578,440.8847,332.125,439.0023" style="stroke:#383838;stroke-width:1.0;"/><text fill="#000000" font-family="monospace" font-size="13" font-weight="bold" lengthAdjust="spacing" textLength="88" x="287.981" y="409.6792">«automatic»</text><!--MD5=[00429ecdfcda5695b8497d8e825643be]
link CHKSUM to *end*PacketReaderFSM--><path d="M368.767,377.7819 C377.128,388.5864 382.896,401.575 376.981,413.6094 C372.495,422.735 363.277,429.6471 355.427,434.1925 " fill="none" id="CHKSUM-to-*end*PacketReaderFSM-1" style="stroke:#383838;stroke-width:1.0;"/><polygon fill="#383838" points="350.77,436.7153,360.5888,435.9457,355.1665,434.3338,356.7784,428.9114,350.77,436.7153" style="stroke:#383838;stroke-width:1.0;"/><text fill="#000000" font-family="monospace" font-size="13" font-weight="bold" lengthAdjust="spacing" textLength="88" x="380.981" y="409.6792">«automatic»</text><!--MD5=[e1894b59b8980ef59ebd1ec82b6cd986]
link RCVCHKESC to RCVCHK--><path d="M231.175,327.2564 C231.887,312.7214 232.797,294.1694 233.548,278.8444 " fill="none" id="RCVCHKESC-to-RCVCHK" style="stroke:#383838;stroke-width:1.0;"/><polygon fill="#383838" points="233.796,273.7824,229.3611,282.5762,233.5518,278.7764,237.3516,282.967,233.796,273.7824" style="stroke:#383838;stroke-width:1.0;"/><text fill="#000000" font-family="monospace" font-size="13" font-weight="bold" lengthAdjust="spacing" textLength="24" x="233.981" y="305.6792">ESC</text><!--MD5=[e1894b59b8980ef59ebd1ec82b6cd986]
link RCVCHKESC to RCVCHK--><path d="M250.154,327.6004 C253.783,322.0194 257.03,315.8694 258.981,309.6094 C262.194,299.3004 259.599,288.2614 255.108,278.4994 " fill="none" id="RCVCHKESC-to-RCVCHK-1" style="stroke:#383838;stroke-width:1.0;"/><polygon fill="#383838" points="252.769,273.8184,253.2162,283.6571,255.0051,278.2905,260.3717,280.0794,252.769,273.8184" style="stroke:#383838;stroke-width:1.0;"/><text fill="#000000" font-family="monospace" font-size="13" font-weight="bold" lengthAdjust="spacing" textLength="32" x="261.981" y="305.6792">CTRL</text><!--MD5=[70e0b19c7f5b4faa3b1befafa171b3ef]
@startuml
skinparam monochrome true
skinparam StateFontName Helvetica
skinparam defaultFontName Monospaced
skinparam defaultFontStyle Bold
skinparam state {
    FontStyle Bold
}
state PacketReaderFSM {
[*] - -> RCVPCKT : CTRL
RCVPCKT - -> RCVDATA : CTRL
RCVPCKT - -> RCVCHK : BYTE
RCVDATA - -> RCVDATA : BYTE
RCVDATA - -> RCVPCKT : CTRL
RCVDATA - -> RCVESC : ESC
RCVESC - -> RCVDATA : ESC
RCVESC - -> RCVDATA : CTRL
RCVCHK - -> RCVCHK : BYTE
RCVCHK - -> RCVCHKESC : ESC
RCVCHK - -> CHKSUM : CTRL
CHKSUM - -> [*] : <<automatic>>
CHKSUM - -> [*] : <<automatic>>
RCVCHKESC - -> RCVCHK : ESC
RCVCHKESC - -> RCVCHK : CTRL
}
@enduml

PlantUML version 1.2021.7(Sun May 23 14:40:07 CAT 2021)
(GPL source distribution)
Java Runtime: OpenJDK Runtime Environment
JVM: OpenJDK 64-Bit Server VM
Default Encoding: Cp1252
Language: en
Country: ZA
--></g></svg>