<?xml version="1.0" encoding="UTF-8" standalone="no"?><svg xmlns="http://www.w3.org/2000/svg" xmlns:xlink="http://www.w3.org/1999/xlink" contentScriptType="application/ecmascript" contentStyleType="text/css" height="482px" preserveAspectRatio="none" style="width:315px;height:482px;background:#FFFFFF;" version="1.1" viewBox="0 0 315 482" width="315px" zoomAndPan="magnify"><defs><filter height="300%" id="f2jaqglnu74jy" width="300%" x="-1" y="-1"><feGaussianBlur result="blurOut" stdDeviation="2.0"/><feColorMatrix in="blurOut" result="blurOut2" type="matrix" values="0 0 0 0 0 0 0 0 0 0 0 0 0 0 0 0 0 0 .4 0"/><feOffset dx="4.0" dy="4.0" in="blurOut2" result="blurOut3"/><feBlend in="SourceGraphic" in2="blurOut3" mode="normal"/></filter></defs><g><!--MD5=[eda83f66e697e6a82d4f59efbe14dd2f]
cluster coins--><rect fill="#F8F8F8" filter="url(#f2jaqglnu74jy)" height="230" rx="12.5" ry="12.5" style="stroke:#383838;stroke-width:1.5;" width="287" x="7" y="240"/><rect fill="#FFFFFF" height="196.3906" rx="12.5" ry="12.5" style="stroke:#FFFFFF;stroke-width:1.0;" width="281" x="10" y="270.6094"/><line style="stroke:#383838;stroke-width:1.5;" x1="7" x2="294" y1="267.6094" y2="267.6094"/><text fill="#000000" font-family="Helvetica" font-size="14" font-weight="bold" lengthAdjust="spacing" textLength="38" x="131.5" y="258.5332">coins</text><!--MD5=[72d821c25f0eb57cd4e4aca2990b7e46]
cluster PayingTurnstileFSM--><rect fill="#F8F8F8" filter="url(#f2jaqglnu74jy)" height="183" rx="12.5" ry="12.5" style="stroke:#383838;stroke-width:1.5;" width="155" x="148" y="7"/><rect fill="#FFFFFF" height="149.3906" rx="12.5" ry="12.5" style="stroke:#FFFFFF;stroke-width:1.0;" width="149" x="151" y="37.6094"/><line style="stroke:#383838;stroke-width:1.5;" x1="148" x2="303" y1="34.6094" y2="34.6094"/><text fill="#000000" font-family="Helvetica" font-size="14" font-weight="bold" lengthAdjust="spacing" textLength="139" x="156" y="25.5332">PayingTurnstileFSM</text><g id="coins.COINS"><rect fill="#F8F8F8" filter="url(#f2jaqglnu74jy)" height="50" rx="12.5" ry="12.5" style="stroke:#383838;stroke-width:1.5;" width="64" x="105" y="276"/><line style="stroke:#383838;stroke-width:1.5;" x1="105" x2="169" y1="303.6094" y2="303.6094"/><text fill="#000000" font-family="Helvetica" font-size="14" font-weight="bold" lengthAdjust="spacing" textLength="44" x="115" y="295.5332">COINS</text></g><g id="coins.UNLOCKED"><rect fill="#F8F8F8" filter="url(#f2jaqglnu74jy)" height="50" rx="12.5" ry="12.5" style="stroke:#383838;stroke-width:1.5;" width="98" x="118" y="404"/><line style="stroke:#383838;stroke-width:1.5;" x1="118" x2="216" y1="431.6094" y2="431.6094"/><text fill="#000000" font-family="Helvetica" font-size="14" font-weight="bold" lengthAdjust="spacing" textLength="78" x="128" y="423.5332">UNLOCKED</text></g><ellipse cx="211" cy="53" fill="#000000" filter="url(#f2jaqglnu74jy)" rx="10" ry="10" style="stroke:none;stroke-width:1.0;"/><g id="PayingTurnstileFSM.LOCKED"><rect fill="#F8F8F8" filter="url(#f2jaqglnu74jy)" height="50" rx="12.5" ry="12.5" style="stroke:#383838;stroke-width:1.5;" width="78" x="172" y="124"/><line style="stroke:#383838;stroke-width:1.5;" x1="172" x2="250" y1="151.6094" y2="151.6094"/><text fill="#000000" font-family="Helvetica" font-size="14" font-weight="bold" lengthAdjust="spacing" textLength="58" x="182" y="143.5332">LOCKED</text></g><!--MD5=[489a7892458dbac9f7d2d3f1d120390f]
link COINS to UNLOCKED--><path d="M104.802,313.715 C75.3932,326.351 38.7781,348.17 55,374 C67.8613,394.4791 90.9142,407.3756 112.776,415.4042 " fill="none" id="COINS-to-UNLOCKED" style="stroke:#383838;stroke-width:1.0;"/><polygon fill="#383838" points="117.711,417.1434,110.5534,410.3781,112.9956,415.4806,107.893,417.9228,117.711,417.1434" style="stroke:#383838;stroke-width:1.0;"/><text fill="#000000" font-family="monospace" font-size="13" font-weight="bold" lengthAdjust="spacing" textLength="88" x="56" y="370.0698">«automatic»</text><!--MD5=[489a7892458dbac9f7d2d3f1d120390f]
link COINS to UNLOCKED--><path d="M142.784,326.294 C147.702,346.95 154.778,376.669 160.012,398.6514 " fill="none" id="COINS-to-UNLOCKED-1" style="stroke:#383838;stroke-width:1.0;"/><polygon fill="#383838" points="161.233,403.7805,163.0397,394.0988,160.0749,398.9165,155.2572,395.9517,161.233,403.7805" style="stroke:#383838;stroke-width:1.0;"/><text fill="#000000" font-family="monospace" font-size="13" font-weight="bold" lengthAdjust="spacing" textLength="88" x="155" y="370.0698">«automatic»</text><!--MD5=[e95c1cf331ed2c204aaf3b73fde9f70f]
link COINS to COINS--><path d="M169.055,289.616 C187.2,287.393 204,291.187 204,301 C204,309.893 190.203,313.843 174.11,312.851 " fill="none" id="COINS-to-COINS" style="stroke:#383838;stroke-width:1.0;"/><polygon fill="#383838" points="169.055,312.384,177.6488,317.1951,174.0338,312.844,178.3848,309.229,169.055,312.384" style="stroke:#383838;stroke-width:1.0;"/><text fill="#000000" font-family="monospace" font-size="13" font-weight="bold" lengthAdjust="spacing" textLength="32" x="210" y="306.0698">COIN</text><!--MD5=[6f5c84d3c685c98c737e0d9e161f05e4]
link *start*PayingTurnstileFSM to LOCKED--><path d="M211,63.013 C211,75.698 211,99.409 211,118.57 " fill="none" id="*start*PayingTurnstileFSM-to-LOCKED" style="stroke:#383838;stroke-width:1.0;"/><polygon fill="#383838" points="211,123.84,215,114.84,211,118.84,207,114.84,211,123.84" style="stroke:#383838;stroke-width:1.0;"/><!--MD5=[26bbedbc5621f2374cb324e59b4d4bff]
link LOCKED to COINS--><path d="M171.673,168.558 C157.071,177.639 142.101,190.092 134,206 C123.909,225.816 125.404,251.153 129.014,270.528 " fill="none" id="LOCKED-to-COINS" style="stroke:#383838;stroke-width:1.0;"/><polygon fill="#383838" points="130.08,275.825,132.227,266.213,129.0942,270.9231,124.3841,267.7903,130.08,275.825" style="stroke:#383838;stroke-width:1.0;"/><text fill="#000000" font-family="monospace" font-size="13" font-weight="bold" lengthAdjust="spacing" textLength="32" x="135" y="220.0698">COIN</text><!--MD5=[26bbedbc5621f2374cb324e59b4d4bff]
link LOCKED to COINS--><path d="M199.111,174.1 C186.057,200.561 165.107,243.027 151.2,271.216 " fill="none" id="LOCKED-to-COINS-1" style="stroke:#383838;stroke-width:1.0;"/><polygon fill="#383838" points="148.86,275.96,156.4305,269.6602,151.0732,271.4765,149.2569,266.1191,148.86,275.96" style="stroke:#383838;stroke-width:1.0;"/><text fill="#000000" font-family="monospace" font-size="13" font-weight="bold" lengthAdjust="spacing" textLength="32" x="184" y="220.0698">COIN</text><!--MD5=[d9263dcde7f2990f059c51f0359981af]
link UNLOCKED to UNLOCKED--><path d="M216.18,417.0469 C235.195,416.5156 251,420.5 251,429 C251,436.7031 238.02,440.6976 221.433,440.9835 " fill="none" id="UNLOCKED-to-UNLOCKED" style="stroke:#383838;stroke-width:1.0;"/><polygon fill="#383838" points="216.18,440.9531,225.157,445.0045,221.1799,440.9817,225.2027,437.0046,216.18,440.9531" style="stroke:#383838;stroke-width:1.0;"/><text fill="#000000" font-family="monospace" font-size="13" font-weight="bold" lengthAdjust="spacing" textLength="32" x="257" y="434.0698">COIN</text><!--MD5=[33c2fb760a7074ec24359010ff9693f6]
link UNLOCKED to LOCKED--><path d="M216.081,408.0621 C230.235,399.7456 244.002,388.5564 252,374 C286.879,310.52 250.836,223.175 227.52,178.635 " fill="none" id="UNLOCKED-to-LOCKED" style="stroke:#383838;stroke-width:1.0;"/><polygon fill="#383838" points="225.166,174.201,225.8519,184.0259,227.51,178.6175,232.9184,180.2756,225.166,174.201" style="stroke:#383838;stroke-width:1.0;"/><text fill="#000000" font-family="monospace" font-size="13" font-weight="bold" lengthAdjust="spacing" textLength="32" x="267" y="306.0698">PASS</text><!--MD5=[0403e5a974c0696a348d45777e670d81]
@startuml
skinparam monochrome true
skinparam StateFontName Helvetica
skinparam defaultFontName Monospaced
skinparam defaultFontStyle Bold
skinparam state {
    FontStyle Bold
}
state coins {
COINS - -> UNLOCKED : <<automatic>>
COINS - -> UNLOCKED : <<automatic>>
COINS - -> COINS : COIN
}
state PayingTurnstileFSM {
[*] - -> LOCKED
LOCKED - -> COINS : COIN
LOCKED - -> COINS : COIN
UNLOCKED - -> UNLOCKED : COIN
UNLOCKED - -> LOCKED : PASS
}
@enduml

PlantUML version 1.2021.7(Sun May 23 14:40:07 CAT 2021)
(GPL source distribution)
Java Runtime: OpenJDK Runtime Environment
JVM: OpenJDK 64-Bit Server VM
Default Encoding: Cp1252
Language: en
Country: ZA
--></g></svg>