<?xml version="1.0" encoding="UTF-8" standalone="no"?><svg xmlns="http://www.w3.org/2000/svg" xmlns:xlink="http://www.w3.org/1999/xlink" contentScriptType="application/ecmascript" contentStyleType="text/css" height="286px" preserveAspectRatio="none" style="width:290px;height:286px;background:#FFFFFF;" version="1.1" viewBox="0 0 290 286" width="290px" zoomAndPan="magnify"><defs><filter height="300%" id="fl2s8jpflqkj8" width="300%" x="-1" y="-1"><feGaussianBlur result="blurOut" stdDeviation="2.0"/><feColorMatrix in="blurOut" result="blurOut2" type="matrix" values="0 0 0 0 0 0 0 0 0 0 0 0 0 0 0 0 0 0 .4 0"/><feOffset dx="4.0" dy="4.0" in="blurOut2" result="blurOut3"/><feBlend in="SourceGraphic" in2="blurOut3" mode="normal"/></filter></defs><g><rect fill="#F8F8F8" filter="url(#fl2s8jpflqkj8)" height="267.6094" rx="12.5" ry="12.5" style="stroke:#383838;stroke-width:1.5;" width="271.5261" x="7" y="7"/><rect fill="#FFFFFF" height="234" rx="12.5" ry="12.5" style="stroke:#FFFFFF;stroke-width:1.0;" width="265.5261" x="10" y="37.6094"/><line style="stroke:#383838;stroke-width:1.5;" x1="7" x2="278.5261" y1="34.6094" y2="34.6094"/><text fill="#000000" font-family="Helvetica" font-size="14" font-weight="bold" lengthAdjust="spacing" textLength="143" x="71.2631" y="26.5332">SecureTurnstileFSM</text><ellipse cx="80.5266" cy="55.6094" fill="#000000" filter="url(#fl2s8jpflqkj8)" rx="10" ry="10" style="stroke:none;stroke-width:1.0;"/><g id="SecureTurnstileFSM.UNLOCKED"><rect fill="#F8F8F8" filter="url(#fl2s8jpflqkj8)" height="50" rx="12.5" ry="12.5" style="stroke:#383838;stroke-width:1.5;" width="98" x="31.5266" y="102.6094"/><line style="stroke:#383838;stroke-width:1.5;" x1="31.5266" x2="129.5266" y1="130.2188" y2="130.2188"/><text fill="#000000" font-family="Helvetica" font-size="14" font-weight="bold" lengthAdjust="spacing" textLength="78" x="41.5266" y="122.1426">UNLOCKED</text></g><g id="SecureTurnstileFSM.LOCKED"><rect fill="#F8F8F8" filter="url(#fl2s8jpflqkj8)" height="50" rx="12.5" ry="12.5" style="stroke:#383838;stroke-width:1.5;" width="78" x="41.5266" y="206.6094"/><line style="stroke:#383838;stroke-width:1.5;" x1="41.5266" x2="119.5266" y1="234.2188" y2="234.2188"/><text fill="#000000" font-family="Helvetica" font-size="14" font-weight="bold" lengthAdjust="spacing" textLength="58" x="51.5266" y="226.1426">LOCKED</text></g><!--MD5=[3f012b33659cea75301beb276eef6189]
link *start*SecureTurnstileFSM to UNLOCKED--><path d="M80.5266,65.7604 C80.5266,73.7954 80.5266,85.9354 80.5266,97.2634 " fill="none" id="*start*SecureTurnstileFSM-to-UNLOCKED" style="stroke:#383838;stroke-width:1.0;"/><polygon fill="#383838" points="80.5266,102.3934,84.5266,93.3934,80.5266,97.3934,76.5266,93.3934,80.5266,102.3934" style="stroke:#383838;stroke-width:1.0;"/><!--MD5=[5d767a4319f708ea6a1e1270c7244025]
link LOCKED to LOCKED--><path d="M119.6888,228.3929 C129.8581,228.5906 137.5261,229.6628 137.5261,231.6094 C137.5261,233.191 132.4641,234.1954 125.1111,234.6224 " fill="none" id="LOCKED-to-LOCKED" style="stroke:#383838;stroke-width:1.0;"/><polygon fill="#383838" points="119.6888,234.8259,128.8322,238.4862,124.6853,234.6387,128.5328,230.4918,119.6888,234.8259" style="stroke:#383838;stroke-width:1.0;"/><text fill="#000000" font-family="monospace" font-size="13" font-weight="bold" lengthAdjust="spacing" textLength="32" x="143.5261" y="236.6792">CARD</text><!--MD5=[5d767a4319f708ea6a1e1270c7244025]
link LOCKED to LOCKED--><path d="M119.7567,225.7128 C149.1851,223.9902 181.5261,225.9558 181.5261,231.6094 C181.5261,236.9318 152.8641,238.9856 124.9521,237.7708 " fill="none" id="LOCKED-to-LOCKED-1" style="stroke:#383838;stroke-width:1.0;"/><polygon fill="#383838" points="119.7567,237.506,128.5416,241.9585,124.7502,237.7603,128.9485,233.9689,119.7567,237.506" style="stroke:#383838;stroke-width:1.0;"/><text fill="#000000" font-family="monospace" font-size="13" font-weight="bold" lengthAdjust="spacing" textLength="32" x="187.5261" y="236.6792">CARD</text><!--MD5=[c03bbcbe1ea2187b5aae6c6faf6bf9ae]
link LOCKED to UNLOCKED--><path d="M106.1001,206.4938 C114.2154,195.9143 120.0424,183.0824 115.5266,170.6094 C113.8302,165.9239 111.3576,161.3938 108.4985,157.1525 " fill="none" id="LOCKED-to-UNLOCKED" style="stroke:#383838;stroke-width:1.0;"/><polygon fill="#383838" points="105.525,153.0124,107.5266,162.6557,108.4419,157.0734,114.0242,157.9887,105.525,153.0124" style="stroke:#383838;stroke-width:1.0;"/><text fill="#000000" font-family="monospace" font-size="13" font-weight="bold" lengthAdjust="spacing" textLength="32" x="117.5266" y="184.6792">CARD</text><!--MD5=[5d767a4319f708ea6a1e1270c7244025]
link LOCKED to LOCKED--><path d="M119.8247,223.9309 C164.6981,219.5538 225.5261,222.1133 225.5261,231.6094 C225.5261,240.7531 169.1291,243.4655 124.8821,239.7465 " fill="none" id="LOCKED-to-LOCKED-2" style="stroke:#383838;stroke-width:1.0;"/><polygon fill="#383838" points="119.8247,239.2879,128.4268,244.0841,124.8043,239.7393,129.1491,236.1168,119.8247,239.2879" style="stroke:#383838;stroke-width:1.0;"/><text fill="#000000" font-family="monospace" font-size="13" font-weight="bold" lengthAdjust="spacing" textLength="32" x="231.5261" y="236.6792">CARD</text><!--MD5=[33c2fb760a7074ec24359010ff9693f6]
link UNLOCKED to LOCKED--><path d="M38.5949,152.8014 C32.9183,157.9317 27.8962,163.8701 24.5266,170.6094 C18,183.6626 25.6596,195.8751 37.1988,205.8302 " fill="none" id="UNLOCKED-to-LOCKED" style="stroke:#383838;stroke-width:1.0;"/><polygon fill="#383838" points="41.2459,209.1177,36.7822,200.3384,37.365,205.9652,31.7382,206.5479,41.2459,209.1177" style="stroke:#383838;stroke-width:1.0;"/><text fill="#000000" font-family="monospace" font-size="13" font-weight="bold" lengthAdjust="spacing" textLength="32" x="25.5266" y="184.6792">CARD</text><!--MD5=[33c2fb760a7074ec24359010ff9693f6]
link UNLOCKED to LOCKED--><path d="M78.4872,153.0234 C78.0877,158.7861 77.7298,164.911 77.5266,170.6094 C77.1688,180.6391 77.5039,191.6062 78.0615,201.3888 " fill="none" id="UNLOCKED-to-LOCKED-1" style="stroke:#383838;stroke-width:1.0;"/><polygon fill="#383838" points="78.3709,206.3853,81.8071,197.1553,78.0619,201.3948,73.8224,197.6497,78.3709,206.3853" style="stroke:#383838;stroke-width:1.0;"/><text fill="#000000" font-family="monospace" font-size="13" font-weight="bold" lengthAdjust="spacing" textLength="32" x="78.5266" y="184.6792">PASS</text><!--MD5=[9854a76dc3b07e148da96d29d23a8867]
@startuml
skinparam monochrome true
skinparam StateFontName Helvetica
skinparam defaultFontName Monospaced
skinparam defaultFontStyle Bold
skinparam state {
    FontStyle Bold
}
state SecureTurnstileFSM {
[*] - -> UNLOCKED
LOCKED - -> LOCKED : CARD
LOCKED - -> LOCKED : CARD
LOCKED - -> UNLOCKED : CARD
LOCKED - -> LOCKED : CARD
UNLOCKED - -> LOCKED : CARD
UNLOCKED - -> LOCKED : PASS
}
@enduml

PlantUML version 1.2021.7(Sun May 23 14:40:07 CAT 2021)
(GPL source distribution)
Java Runtime: OpenJDK Runtime Environment
JVM: OpenJDK 64-Bit Server VM
Default Encoding: Cp1252
Language: en
Country: ZA
--></g></svg>