<?xml version="1.0" encoding="UTF-8" standalone="no"?><svg xmlns="http://www.w3.org/2000/svg" xmlns:xlink="http://www.w3.org/1999/xlink" contentScriptType="application/ecmascript" contentStyleType="text/css" height="332px" preserveAspectRatio="none" style="width:290px;height:332px;background:#FFFFFF;" version="1.1" viewBox="0 0 290 332" width="290px" zoomAndPan="magnify"><defs><filter height="300%" id="f3urvkhmrryjp" width="300%" x="-1" y="-1"><feGaussianBlur result="blurOut" stdDeviation="2.0"/><feColorMatrix in="blurOut" result="blurOut2" type="matrix" values="0 0 0 0 0 0 0 0 0 0 0 0 0 0 0 0 0 0 .4 0"/><feOffset dx="4.0" dy="4.0" in="blurOut2" result="blurOut3"/><feBlend in="SourceGraphic" in2="blurOut3" mode="normal"/></filter></defs><g><rect fill="#F8F8F8" filter="url(#f3urvkhmrryjp)" height="313.6094" rx="12.5" ry="12.5" style="stroke:#383838;stroke-width:1.5;" width="271.8637" x="7" y="7"/><rect fill="#FFFFFF" height="280" rx="12.5" ry="12.5" style="stroke:#FFFFFF;stroke-width:1.0;" width="265.8637" x="10" y="37.6094"/><line style="stroke:#383838;stroke-width:1.5;" x1="7" x2="278.8637" y1="34.6094" y2="34.6094"/><text fill="#000000" font-family="Helvetica" font-size="14" font-weight="bold" lengthAdjust="spacing" textLength="140" x="72.9318" y="26.5332">SimpleTurnstileFSM</text><ellipse cx="78.8636" cy="55.6094" fill="#000000" filter="url(#f3urvkhmrryjp)" rx="10" ry="10" style="stroke:none;stroke-width:1.0;"/><g id="SimpleTurnstileFSM.UNLOCKED"><rect fill="#F8F8F8" filter="url(#f3urvkhmrryjp)" height="50" rx="12.5" ry="12.5" style="stroke:#383838;stroke-width:1.5;" width="98" x="29.8635" y="108.6094"/><line style="stroke:#383838;stroke-width:1.5;" x1="29.8635" x2="127.8635" y1="136.2188" y2="136.2188"/><text fill="#000000" font-family="Helvetica" font-size="14" font-weight="bold" lengthAdjust="spacing" textLength="78" x="39.8635" y="128.1426">UNLOCKED</text></g><g id="SimpleTurnstileFSM.LOCKED"><rect fill="#F8F8F8" filter="url(#f3urvkhmrryjp)" height="50" rx="12.5" ry="12.5" style="stroke:#383838;stroke-width:1.5;" width="78" x="39.8636" y="252.6094"/><line style="stroke:#383838;stroke-width:1.5;" x1="39.8636" x2="117.8636" y1="280.2188" y2="280.2188"/><text fill="#000000" font-family="Helvetica" font-size="14" font-weight="bold" lengthAdjust="spacing" textLength="58" x="49.8636" y="272.1426">LOCKED</text></g><!--MD5=[e3a47660ca0c9dd780f71132a26165c3]
link *start*SimpleTurnstileFSM to UNLOCKED--><path d="M78.8636,65.6264 C78.8636,74.8594 78.8636,89.7134 78.8636,103.0904 " fill="none" id="*start*SimpleTurnstileFSM-to-UNLOCKED" style="stroke:#383838;stroke-width:1.0;"/><polygon fill="#383838" points="78.8636,108.3224,82.8636,99.3224,78.8636,103.3224,74.8636,99.3224,78.8636,108.3224" style="stroke:#383838;stroke-width:1.0;"/><!--MD5=[c03bbcbe1ea2187b5aae6c6faf6bf9ae]
link LOCKED to UNLOCKED--><path d="M97.6588,252.441 C101.0373,246.8699 104.0559,240.764 105.8636,234.6094 C112.3762,212.4349 111.7199,204.9662 105.8636,182.6094 C104.1645,176.1234 101.3704,169.5894 98.2085,163.5194 " fill="none" id="LOCKED-to-UNLOCKED" style="stroke:#383838;stroke-width:1.0;"/><polygon fill="#383838" points="95.731,158.9774,96.529,168.7938,98.1252,163.3669,103.5522,164.9631,95.731,158.9774" style="stroke:#383838;stroke-width:1.0;"/><text fill="#000000" font-family="monospace" font-size="13" font-weight="bold" lengthAdjust="spacing" textLength="72" x="110.8636" y="196.6792">COIN -&gt; {</text><text fill="#000000" font-family="monospace" font-size="13" font-weight="bold" lengthAdjust="spacing" textLength="64" x="126.8636" y="213.6528">unlock()</text><text fill="#000000" font-family="monospace" font-size="13" font-weight="bold" lengthAdjust="spacing" textLength="8" x="110.8636" y="230.6265">}</text><!--MD5=[33c2fb760a7074ec24359010ff9693f6]
link UNLOCKED to LOCKED--><path d="M45.1629,158.8154 C38.1488,165.6444 31.7217,173.6804 27.8635,182.6094 C18.6969,203.8249 18,213.7088 27.8635,234.6094 C30.2622,239.6922 33.6112,244.368 37.4586,248.6063 " fill="none" id="UNLOCKED-to-LOCKED" style="stroke:#383838;stroke-width:1.0;"/><polygon fill="#383838" points="41.1192,252.3748,37.7175,243.132,37.6353,248.7883,31.9791,248.7061,41.1192,252.3748" style="stroke:#383838;stroke-width:1.0;"/><text fill="#000000" font-family="monospace" font-size="13" font-weight="bold" lengthAdjust="spacing" textLength="72" x="28.8635" y="196.6792">PASS -&gt; {</text><text fill="#000000" font-family="monospace" font-size="13" font-weight="bold" lengthAdjust="spacing" textLength="48" x="44.8635" y="213.6528">lock()</text><text fill="#000000" font-family="monospace" font-size="13" font-weight="bold" lengthAdjust="spacing" textLength="8" x="28.8635" y="230.6265">}</text><!--MD5=[d9263dcde7f2990f059c51f0359981af]
link UNLOCKED to UNLOCKED--><path d="M127.9437,124.9004 C138.3497,125.7844 145.8637,128.6874 145.8637,133.6094 C145.8637,137.6854 140.7107,140.3764 133.0297,141.6834 " fill="none" id="UNLOCKED-to-UNLOCKED" style="stroke:#383838;stroke-width:1.0;"/><polygon fill="#383838" points="127.9437,142.3184,137.3702,145.1715,132.9051,141.6984,136.3782,137.2332,127.9437,142.3184" style="stroke:#383838;stroke-width:1.0;"/><text fill="#000000" font-family="monospace" font-size="13" font-weight="bold" lengthAdjust="spacing" textLength="72" x="151.8637" y="121.6792">COIN -&gt; {</text><text fill="#000000" font-family="monospace" font-size="13" font-weight="bold" lengthAdjust="spacing" textLength="96" x="167.8637" y="138.6528">returnCoin()</text><text fill="#000000" font-family="monospace" font-size="13" font-weight="bold" lengthAdjust="spacing" textLength="8" x="151.8637" y="155.6265">}</text><!--MD5=[26df7c15ba6952a2630ec0c9908f663c]
@startuml
skinparam monochrome true
skinparam StateFontName Helvetica
skinparam defaultFontName Monospaced
skinparam defaultFontStyle Bold
skinparam state {
    FontStyle Bold
}
state SimpleTurnstileFSM {
[*] - -> UNLOCKED
LOCKED - -> UNLOCKED : COIN -> {\l  unlock()\l}
UNLOCKED - -> LOCKED : PASS -> {\l  lock()\l}
UNLOCKED - -> UNLOCKED : COIN -> {\l  returnCoin()\l}
}
@enduml

PlantUML version 1.2021.7(Sun May 23 14:40:07 CAT 2021)
(GPL source distribution)
Java Runtime: OpenJDK Runtime Environment
JVM: OpenJDK 64-Bit Server VM
Default Encoding: Cp1252
Language: en
Country: ZA
--></g></svg>