<?xml version="1.0" encoding="UTF-8" standalone="no"?><svg xmlns="http://www.w3.org/2000/svg" xmlns:xlink="http://www.w3.org/1999/xlink" contentScriptType="application/ecmascript" contentStyleType="text/css" height="286px" preserveAspectRatio="none" style="width:200px;height:286px;background:#FFFFFF;" version="1.1" viewBox="0 0 200 286" width="200px" zoomAndPan="magnify"><defs><filter height="300%" id="fhailwyv4329n" width="300%" x="-1" y="-1"><feGaussianBlur result="blurOut" stdDeviation="2.0"/><feColorMatrix in="blurOut" result="blurOut2" type="matrix" values="0 0 0 0 0 0 0 0 0 0 0 0 0 0 0 0 0 0 .4 0"/><feOffset dx="4.0" dy="4.0" in="blurOut2" result="blurOut3"/><feBlend in="SourceGraphic" in2="blurOut3" mode="normal"/></filter></defs><g><rect fill="#F8F8F8" filter="url(#fhailwyv4329n)" height="267.6094" rx="12.5" ry="12.5" style="stroke:#383838;stroke-width:1.5;" width="181" x="7" y="7"/><rect fill="#FFFFFF" height="234" rx="12.5" ry="12.5" style="stroke:#FFFFFF;stroke-width:1.0;" width="175" x="10" y="37.6094"/><line style="stroke:#383838;stroke-width:1.5;" x1="7" x2="188" y1="34.6094" y2="34.6094"/><text fill="#000000" font-family="Helvetica" font-size="14" font-weight="bold" lengthAdjust="spacing" textLength="140" x="27.5" y="26.5332">SimpleTurnstileFSM</text><ellipse cx="68" cy="55.6094" fill="#000000" filter="url(#fhailwyv4329n)" rx="10" ry="10" style="stroke:none;stroke-width:1.0;"/><g id="SimpleTurnstileFSM.UNLOCKED"><rect fill="#F8F8F8" filter="url(#fhailwyv4329n)" height="50" rx="12.5" ry="12.5" style="stroke:#383838;stroke-width:1.5;" width="98" x="19" y="102.6094"/><line style="stroke:#383838;stroke-width:1.5;" x1="19" x2="117" y1="130.2188" y2="130.2188"/><text fill="#000000" font-family="Helvetica" font-size="14" font-weight="bold" lengthAdjust="spacing" textLength="78" x="29" y="122.1426">UNLOCKED</text></g><g id="SimpleTurnstileFSM.LOCKED"><rect fill="#F8F8F8" filter="url(#fhailwyv4329n)" height="50" rx="12.5" ry="12.5" style="stroke:#383838;stroke-width:1.5;" width="78" x="29" y="206.6094"/><line style="stroke:#383838;stroke-width:1.5;" x1="29" x2="107" y1="234.2188" y2="234.2188"/><text fill="#000000" font-family="Helvetica" font-size="14" font-weight="bold" lengthAdjust="spacing" textLength="58" x="39" y="226.1426">LOCKED</text></g><!--MD5=[e3a47660ca0c9dd780f71132a26165c3]
link *start*SimpleTurnstileFSM to UNLOCKED--><path d="M68,65.7604 C68,73.7954 68,85.9354 68,97.2634 " fill="none" id="*start*SimpleTurnstileFSM-to-UNLOCKED" style="stroke:#383838;stroke-width:1.0;"/><polygon fill="#383838" points="68,102.3934,72,93.3934,68,97.3934,64,93.3934,68,102.3934" style="stroke:#383838;stroke-width:1.0;"/><!--MD5=[c03bbcbe1ea2187b5aae6c6faf6bf9ae]
link LOCKED to UNLOCKED--><path d="M72.7567,206.2649 C73.6888,200.4994 74.5244,194.3557 75,188.6094 C75.8324,178.5522 75.0499,167.5783 73.7491,157.7979 " fill="none" id="LOCKED-to-UNLOCKED" style="stroke:#383838;stroke-width:1.0;"/><polygon fill="#383838" points="73.0274,152.8034,70.3557,162.2829,73.7425,157.752,78.2735,161.1387,73.0274,152.8034" style="stroke:#383838;stroke-width:1.0;"/><text fill="#000000" font-family="monospace" font-size="13" font-weight="bold" lengthAdjust="spacing" textLength="32" x="76" y="184.6792">COIN</text><!--MD5=[33c2fb760a7074ec24359010ff9693f6]
link UNLOCKED to LOCKED--><path d="M46.1383,152.9054 C42.3842,158.3772 39.0397,164.4112 37,170.6094 C33.4721,181.3299 36.98,192.4713 42.7315,202.2014 " fill="none" id="UNLOCKED-to-LOCKED" style="stroke:#383838;stroke-width:1.0;"/><polygon fill="#383838" points="45.5148,206.5661,44.0483,196.827,42.8264,202.3503,37.3031,201.1284,45.5148,206.5661" style="stroke:#383838;stroke-width:1.0;"/><text fill="#000000" font-family="monospace" font-size="13" font-weight="bold" lengthAdjust="spacing" textLength="32" x="38" y="184.6792">PASS</text><!--MD5=[d9263dcde7f2990f059c51f0359981af]
link UNLOCKED to UNLOCKED--><path d="M117.0804,119.9884 C127.486,120.7624 135,123.3024 135,127.6094 C135,131.1754 129.847,133.5304 122.166,134.6744 " fill="none" id="UNLOCKED-to-UNLOCKED" style="stroke:#383838;stroke-width:1.0;"/><polygon fill="#383838" points="117.0804,135.2304,126.4615,138.2295,122.0508,134.6875,125.5929,130.2768,117.0804,135.2304" style="stroke:#383838;stroke-width:1.0;"/><text fill="#000000" font-family="monospace" font-size="13" font-weight="bold" lengthAdjust="spacing" textLength="32" x="141" y="132.6792">COIN</text><!--MD5=[7533e5a9879f0a0bb54c09f63131b8a5]
@startuml
skinparam monochrome true
skinparam StateFontName Helvetica
skinparam defaultFontName Monospaced
skinparam defaultFontStyle Bold
skinparam state {
    FontStyle Bold
}
state SimpleTurnstileFSM {
[*] - -> UNLOCKED
LOCKED - -> UNLOCKED : COIN
UNLOCKED - -> LOCKED : PASS
UNLOCKED - -> UNLOCKED : COIN
}
@enduml

PlantUML version 1.2021.7(Sun May 23 14:40:07 CAT 2021)
(GPL source distribution)
Java Runtime: OpenJDK Runtime Environment
JVM: OpenJDK 64-Bit Server VM
Default Encoding: Cp1252
Language: en
Country: ZA
--></g></svg>