<?xml version="1.0" encoding="UTF-8" standalone="no"?><svg xmlns="http://www.w3.org/2000/svg" xmlns:xlink="http://www.w3.org/1999/xlink" contentScriptType="application/ecmascript" contentStyleType="text/css" height="270px" preserveAspectRatio="none" style="width:290px;height:270px;background:#FFFFFF;" version="1.1" viewBox="0 0 290 270" width="290px" zoomAndPan="magnify"><defs><filter height="300%" id="f14svqqaag4kwx" width="300%" x="-1" y="-1"><feGaussianBlur result="blurOut" stdDeviation="2.0"/><feColorMatrix in="blurOut" result="blurOut2" type="matrix" values="0 0 0 0 0 0 0 0 0 0 0 0 0 0 0 0 0 0 .4 0"/><feOffset dx="4.0" dy="4.0" in="blurOut2" result="blurOut3"/><feBlend in="SourceGraphic" in2="blurOut3" mode="normal"/></filter></defs><g><rect fill="#F8F8F8" filter="url(#f14svqqaag4kwx)" height="251.6094" rx="12.5" ry="12.5" style="stroke:#383838;stroke-width:1.5;" width="271.8637" x="7" y="7"/><rect fill="#FFFFFF" height="218" rx="12.5" ry="12.5" style="stroke:#FFFFFF;stroke-width:1.0;" width="265.8637" x="10" y="37.6094"/><line style="stroke:#383838;stroke-width:1.5;" x1="7" x2="278.8637" y1="34.6094" y2="34.6094"/><text fill="#000000" font-family="Helvetica" font-size="14" font-weight="bold" lengthAdjust="spacing" textLength="140" x="72.9318" y="26.5332">SimpleTurnstileFSM</text><g id="SimpleTurnstileFSM.LOCKED"><rect fill="#F8F8F8" filter="url(#f14svqqaag4kwx)" height="50" rx="12.5" ry="12.5" style="stroke:#383838;stroke-width:1.5;" width="78" x="39.8636" y="46.6094"/><line style="stroke:#383838;stroke-width:1.5;" x1="39.8636" x2="117.8636" y1="74.2188" y2="74.2188"/><text fill="#000000" font-family="Helvetica" font-size="14" font-weight="bold" lengthAdjust="spacing" textLength="58" x="49.8636" y="66.1426">LOCKED</text></g><g id="SimpleTurnstileFSM.UNLOCKED"><rect fill="#F8F8F8" filter="url(#f14svqqaag4kwx)" height="50" rx="12.5" ry="12.5" style="stroke:#383838;stroke-width:1.5;" width="98" x="29.8635" y="190.6094"/><line style="stroke:#383838;stroke-width:1.5;" x1="29.8635" x2="127.8635" y1="218.2188" y2="218.2188"/><text fill="#000000" font-family="Helvetica" font-size="14" font-weight="bold" lengthAdjust="spacing" textLength="78" x="39.8635" y="210.1426">UNLOCKED</text></g><!--MD5=[c03bbcbe1ea2187b5aae6c6faf6bf9ae]
link LOCKED to UNLOCKED--><path d="M41.1192,96.8444 C35.7505,102.0264 30.9965,107.9704 27.8635,114.6094 C18,135.5104 18.6969,145.3944 27.8635,166.6094 C31.0586,174.004 36.0155,180.786 41.6084,186.7771 " fill="none" id="LOCKED-to-UNLOCKED" style="stroke:#383838;stroke-width:1.0;"/><polygon fill="#383838" points="45.1629,190.4037,41.7198,181.1763,41.663,186.8328,36.0064,186.776,45.1629,190.4037" style="stroke:#383838;stroke-width:1.0;"/><text fill="#000000" font-family="monospace" font-size="13" font-weight="bold" lengthAdjust="spacing" textLength="72" x="28.8635" y="128.6792">COIN -&gt; {</text><text fill="#000000" font-family="monospace" font-size="13" font-weight="bold" lengthAdjust="spacing" textLength="64" x="44.8635" y="145.6528">unlock()</text><text fill="#000000" font-family="monospace" font-size="13" font-weight="bold" lengthAdjust="spacing" textLength="8" x="28.8635" y="162.6265">}</text><!--MD5=[33c2fb760a7074ec24359010ff9693f6]
link UNLOCKED to LOCKED--><path d="M98.2029,190.5439 C102.9601,183.2713 107.3947,174.9828 109.8636,166.6094 C116.3996,144.4414 117.0879,136.5624 109.8636,114.6094 C108.3338,109.9604 106.07,105.4044 103.45,101.1084 " fill="none" id="UNLOCKED-to-LOCKED" style="stroke:#383838;stroke-width:1.0;"/><polygon fill="#383838" points="100.7253,96.9054,102.2624,106.6335,103.4442,101.1015,108.9762,102.2833,100.7253,96.9054" style="stroke:#383838;stroke-width:1.0;"/><text fill="#000000" font-family="monospace" font-size="13" font-weight="bold" lengthAdjust="spacing" textLength="72" x="115.8636" y="128.6792">PASS -&gt; {</text><text fill="#000000" font-family="monospace" font-size="13" font-weight="bold" lengthAdjust="spacing" textLength="48" x="131.8636" y="145.6528">lock()</text><text fill="#000000" font-family="monospace" font-size="13" font-weight="bold" lengthAdjust="spacing" textLength="8" x="115.8636" y="162.6265">}</text><!--MD5=[d9263dcde7f2990f059c51f0359981af]
link UNLOCKED to UNLOCKED--><path d="M127.9437,202.1824 C138.3497,203.5458 145.8637,208.0215 145.8637,215.6094 C145.8637,221.8931 140.7107,226.0425 133.0297,228.0576 " fill="none" id="UNLOCKED-to-UNLOCKED" style="stroke:#383838;stroke-width:1.0;"/><polygon fill="#383838" points="127.9437,229.0364,137.5377,231.262,132.8534,228.0907,136.0247,223.4064,127.9437,229.0364" style="stroke:#383838;stroke-width:1.0;"/><text fill="#000000" font-family="monospace" font-size="13" font-weight="bold" lengthAdjust="spacing" textLength="72" x="151.8637" y="203.6792">COIN -&gt; {</text><text fill="#000000" font-family="monospace" font-size="13" font-weight="bold" lengthAdjust="spacing" textLength="96" x="167.8637" y="220.6528">returnCoin()</text><text fill="#000000" font-family="monospace" font-size="13" font-weight="bold" lengthAdjust="spacing" textLength="8" x="151.8637" y="237.6265">}</text><!--MD5=[cd4baf1beba81724e3e6e337e68a2ed7]
@startuml
skinparam monochrome true
skinparam StateFontName Helvetica
skinparam defaultFontName Monospaced
skinparam defaultFontStyle Bold
skinparam state {
    FontColor Black
    FontStyle Bold
}
state SimpleTurnstileFSM {
LOCKED - -> UNLOCKED : COIN -> {\l  unlock()\l}
UNLOCKED - -> LOCKED : PASS -> {\l  lock()\l}
UNLOCKED - -> UNLOCKED : COIN -> {\l  returnCoin()\l}
}
@enduml

PlantUML version 1.2021.7(Sun May 23 14:40:07 CAT 2021)
(GPL source distribution)
Java Runtime: OpenJDK Runtime Environment
JVM: OpenJDK 64-Bit Server VM
Default Encoding: Cp1252
Language: en
Country: ZA
--></g></svg>