<?xml version="1.0" encoding="UTF-8" standalone="no"?><svg xmlns="http://www.w3.org/2000/svg" xmlns:xlink="http://www.w3.org/1999/xlink" contentScriptType="application/ecmascript" contentStyleType="text/css" height="286px" preserveAspectRatio="none" style="width:653px;height:286px;background:#FFFFFF;" version="1.1" viewBox="0 0 653 286" width="653px" zoomAndPan="magnify"><defs><filter height="300%" id="f1kn1jg10jpn66" width="300%" x="-1" y="-1"><feGaussianBlur result="blurOut" stdDeviation="2.0"/><feColorMatrix in="blurOut" result="blurOut2" type="matrix" values="0 0 0 0 0 0 0 0 0 0 0 0 0 0 0 0 0 0 .4 0"/><feOffset dx="4.0" dy="4.0" in="blurOut2" result="blurOut3"/><feBlend in="SourceGraphic" in2="blurOut3" mode="normal"/></filter></defs><g><rect fill="#F8F8F8" filter="url(#f1kn1jg10jpn66)" height="267.6094" rx="12.5" ry="12.5" style="stroke:#383838;stroke-width:1.5;" width="634.7255" x="7" y="7"/><rect fill="#FFFFFF" height="234" rx="12.5" ry="12.5" style="stroke:#FFFFFF;stroke-width:1.0;" width="628.7255" x="10" y="37.6094"/><line style="stroke:#383838;stroke-width:1.5;" x1="7" x2="641.7255" y1="34.6094" y2="34.6094"/><text fill="#000000" font-family="Helvetica" font-size="14" font-weight="bold" lengthAdjust="spacing" textLength="182" x="233.3628" y="26.5332">TimerSecureTurnstileFSM</text><ellipse cx="443.7255" cy="55.6094" fill="#000000" filter="url(#f1kn1jg10jpn66)" rx="10" ry="10" style="stroke:none;stroke-width:1.0;"/><g id="TimerSecureTurnstileFSM.UNLOCKED"><rect fill="#F8F8F8" filter="url(#f1kn1jg10jpn66)" height="50" rx="12.5" ry="12.5" style="stroke:#383838;stroke-width:1.5;" width="98" x="394.7255" y="102.6094"/><line style="stroke:#383838;stroke-width:1.5;" x1="394.7255" x2="492.7255" y1="130.2188" y2="130.2188"/><text fill="#000000" font-family="Helvetica" font-size="14" font-weight="bold" lengthAdjust="spacing" textLength="78" x="404.7255" y="122.1426">UNLOCKED</text></g><g id="TimerSecureTurnstileFSM.LOCKED"><rect fill="#F8F8F8" filter="url(#f1kn1jg10jpn66)" height="50" rx="12.5" ry="12.5" style="stroke:#383838;stroke-width:1.5;" width="78" x="404.7255" y="206.6094"/><line style="stroke:#383838;stroke-width:1.5;" x1="404.7255" x2="482.7255" y1="234.2188" y2="234.2188"/><text fill="#000000" font-family="Helvetica" font-size="14" font-weight="bold" lengthAdjust="spacing" textLength="58" x="414.7255" y="226.1426">LOCKED</text></g><!--MD5=[e94777a82bbc93a409d8dea03011b069]
link *start*TimerSecureTurnstileFSM to UNLOCKED--><path d="M443.7255,65.7604 C443.7255,73.7954 443.7255,85.9354 443.7255,97.2634 " fill="none" id="*start*TimerSecureTurnstileFSM-to-UNLOCKED" style="stroke:#383838;stroke-width:1.0;"/><polygon fill="#383838" points="443.7255,102.3934,447.7255,93.3934,443.7255,97.3934,439.7255,93.3934,443.7255,102.3934" style="stroke:#383838;stroke-width:1.0;"/><!--MD5=[5d767a4319f708ea6a1e1270c7244025]
link LOCKED to LOCKED--><path d="M482.8875,228.3929 C493.0575,228.5906 500.7255,229.6628 500.7255,231.6094 C500.7255,233.191 495.6635,234.1954 488.3105,234.6224 " fill="none" id="LOCKED-to-LOCKED" style="stroke:#383838;stroke-width:1.0;"/><polygon fill="#383838" points="482.8875,234.8259,492.0309,238.4862,487.884,234.6387,491.7315,230.4918,482.8875,234.8259" style="stroke:#383838;stroke-width:1.0;"/><text fill="#000000" font-family="monospace" font-size="13" font-weight="bold" lengthAdjust="spacing" textLength="32" x="506.7255" y="236.6792">CARD</text><!--MD5=[5d767a4319f708ea6a1e1270c7244025]
link LOCKED to LOCKED--><path d="M482.9555,225.7128 C512.3835,223.9902 544.7255,225.9558 544.7255,231.6094 C544.7255,236.9318 516.0625,238.9856 488.1515,237.7708 " fill="none" id="LOCKED-to-LOCKED-1" style="stroke:#383838;stroke-width:1.0;"/><polygon fill="#383838" points="482.9555,237.506,491.7404,241.9585,487.949,237.7603,492.1473,233.9689,482.9555,237.506" style="stroke:#383838;stroke-width:1.0;"/><text fill="#000000" font-family="monospace" font-size="13" font-weight="bold" lengthAdjust="spacing" textLength="32" x="550.7255" y="236.6792">CARD</text><!--MD5=[c03bbcbe1ea2187b5aae6c6faf6bf9ae]
link LOCKED to UNLOCKED--><path d="M483.1005,213.2236 C501.2355,202.5296 516.9145,187.6301 507.7255,170.6094 C504.8155,165.2189 500.8785,160.4079 496.3785,156.1424 " fill="none" id="LOCKED-to-UNLOCKED" style="stroke:#383838;stroke-width:1.0;"/><polygon fill="#383838" points="492.4765,152.6874,496.5605,161.6496,496.219,156.003,501.8655,155.6616,492.4765,152.6874" style="stroke:#383838;stroke-width:1.0;"/><text fill="#000000" font-family="monospace" font-size="13" font-weight="bold" lengthAdjust="spacing" textLength="32" x="510.7255" y="184.6792">CARD</text><!--MD5=[5d767a4319f708ea6a1e1270c7244025]
link LOCKED to LOCKED--><path d="M483.0235,223.9309 C527.8975,219.5538 588.7255,222.1133 588.7255,231.6094 C588.7255,240.7531 532.3275,243.4655 488.0815,239.7465 " fill="none" id="LOCKED-to-LOCKED-2" style="stroke:#383838;stroke-width:1.0;"/><polygon fill="#383838" points="483.0235,239.2879,491.6256,244.0841,488.0031,239.7393,492.3479,236.1168,483.0235,239.2879" style="stroke:#383838;stroke-width:1.0;"/><text fill="#000000" font-family="monospace" font-size="13" font-weight="bold" lengthAdjust="spacing" textLength="32" x="594.7255" y="236.6792">CARD</text><!--MD5=[33c2fb760a7074ec24359010ff9693f6]
link UNLOCKED to LOCKED--><path d="M394.4635,130.4564 C296.6455,134.6334 85.4231,146.3814 63.7257,170.6094 C18,221.6674 289.8445,229.4222 399.4415,230.4902 " fill="none" id="UNLOCKED-to-LOCKED" style="stroke:#383838;stroke-width:1.0;"/><polygon fill="#383838" points="404.5355,230.5361,395.5724,226.454,399.5357,230.4904,395.4993,234.4536,404.5355,230.5361" style="stroke:#383838;stroke-width:1.0;"/><text fill="#000000" font-family="monospace" font-size="13" font-weight="bold" lengthAdjust="spacing" textLength="328" x="64.7257" y="184.6792">«timeout = TimerSecureTurnstile::timeout»</text><!--MD5=[33c2fb760a7074ec24359010ff9693f6]
link UNLOCKED to LOCKED--><path d="M424.9305,152.7774 C421.5515,158.3489 418.5335,164.4548 416.7255,170.6094 C413.6275,181.1591 416.6765,192.2582 421.6875,202.0019 " fill="none" id="UNLOCKED-to-LOCKED-1" style="stroke:#383838;stroke-width:1.0;"/><polygon fill="#383838" points="424.1135,206.3766,423.2473,196.5659,421.6888,202.0038,416.2509,200.4453,424.1135,206.3766" style="stroke:#383838;stroke-width:1.0;"/><text fill="#000000" font-family="monospace" font-size="13" font-weight="bold" lengthAdjust="spacing" textLength="32" x="417.7255" y="184.6792">CARD</text><!--MD5=[33c2fb760a7074ec24359010ff9693f6]
link UNLOCKED to LOCKED--><path d="M448.7535,152.8034 C450.4535,163.7247 451.7035,176.7991 450.7255,188.6094 C450.3915,192.6498 449.8785,196.8866 449.2805,201.0503 " fill="none" id="UNLOCKED-to-LOCKED-2" style="stroke:#383838;stroke-width:1.0;"/><polygon fill="#383838" points="448.4825,206.2649,453.7977,197.9734,449.2387,201.3224,445.8897,196.7634,448.4825,206.2649" style="stroke:#383838;stroke-width:1.0;"/><text fill="#000000" font-family="monospace" font-size="13" font-weight="bold" lengthAdjust="spacing" textLength="32" x="451.7255" y="184.6792">PASS</text><!--MD5=[3adf2c90e62a336d2b0aab3c9f29e4ce]
@startuml
skinparam monochrome true
skinparam StateFontName Helvetica
skinparam defaultFontName Monospaced
skinparam defaultFontStyle Bold
skinparam state {
    FontStyle Bold
}
state TimerSecureTurnstileFSM {
[*] - -> UNLOCKED
LOCKED - -> LOCKED : CARD
LOCKED - -> LOCKED : CARD
LOCKED - -> UNLOCKED : CARD
LOCKED - -> LOCKED : CARD
UNLOCKED - -> LOCKED : <<timeout = TimerSecureTurnstile::timeout>>
UNLOCKED - -> LOCKED : CARD
UNLOCKED - -> LOCKED : PASS
}
@enduml

PlantUML version 1.2021.7(Sun May 23 14:40:07 CAT 2021)
(GPL source distribution)
Java Runtime: OpenJDK Runtime Environment
JVM: OpenJDK 64-Bit Server VM
Default Encoding: Cp1252
Language: en
Country: ZA
--></g></svg>